<svg width="800" height="800" viewBox="0 0 800 800" fill="none" xmlns="http://www.w3.org/2000/svg">
<path fill-rule="evenodd" clip-rule="evenodd" d="M778.233 206.9C784.305 200.613 787.665 192.193 787.589 183.453C787.513 174.713 784.007 166.353 777.827 160.173C771.647 153.992 763.287 150.487 754.547 150.411C745.807 150.335 737.387 153.695 731.1 159.767L538 352.867L344.9 159.767C338.613 153.695 330.193 150.335 321.453 150.411C312.713 150.487 304.353 153.992 298.173 160.173C291.992 166.353 288.487 174.713 288.411 183.453C288.335 192.193 291.695 200.613 297.767 206.9L490.867 400L297.767 593.1C294.583 596.175 292.044 599.853 290.297 603.92C288.55 607.987 287.63 612.361 287.592 616.787C287.553 621.213 288.397 625.602 290.073 629.698C291.749 633.795 294.224 637.517 297.353 640.646C300.483 643.776 304.205 646.251 308.301 647.927C312.398 649.603 316.787 650.447 321.213 650.408C325.639 650.37 330.013 649.45 334.08 647.703C338.147 645.956 341.825 643.417 344.9 640.233L538 447.133L731.1 640.233C737.387 646.305 745.807 649.665 754.547 649.589C763.287 649.513 771.647 646.008 777.827 639.827C784.007 633.647 787.513 625.287 787.589 616.547C787.665 607.807 784.305 599.387 778.233 593.1L585.133 400L778.233 206.9Z" fill="white"/>
</svg>
