<svg width="800" height="800" viewBox="0 0 800 800" fill="none" xmlns="http://www.w3.org/2000/svg">
<path d="M723.333 141.667H256.667C241.223 141.754 226.436 147.928 215.515 158.849C204.595 169.77 198.421 184.556 198.333 200V600C198.421 615.443 204.595 630.23 215.515 641.15C226.436 652.073 241.223 658.247 256.667 658.333H723.333C738.777 658.247 753.563 652.073 764.483 641.15C775.407 630.23 781.58 615.443 781.667 600V200C781.58 184.556 775.407 169.77 764.483 158.849C753.563 147.928 738.777 141.754 723.333 141.667ZM256.667 191.667H723.333C725.543 191.667 727.663 192.545 729.227 194.107C730.79 195.67 731.667 197.79 731.667 200V251.333L490 372L248.333 251.333V200C248.333 197.79 249.211 195.67 250.774 194.107C252.337 192.545 254.457 191.667 256.667 191.667ZM723.333 608.333H256.667C254.457 608.333 252.337 607.457 250.774 605.893C249.211 604.33 248.333 602.21 248.333 600V307L478.667 422.333C482.187 424.093 486.067 425.01 490 425.01C493.933 425.01 497.813 424.093 501.333 422.333L731.667 307V600C731.667 602.21 730.79 604.33 729.227 605.893C727.663 607.457 725.543 608.333 723.333 608.333Z" fill="white"/>
</svg>
