<svg width="16" height="16" viewBox="0 0 16 16" fill="none" xmlns="http://www.w3.org/2000/svg">
<g clip-path="url(#clip0_1_143)">
<path d="M5.14556 1.94295C5.67917 1.94295 6.11237 1.50758 6.11237 0.971315C6.11237 0.435363 5.67917 6.77227e-08 5.14556 6.13596e-08L2.39872 2.86038e-08C1.73938 2.07412e-08 1.13852 0.271276 0.704071 0.707583C0.269931 1.14389 1.12363e-06 1.74774 1.11573e-06 2.41069L9.82421e-07 13.5893C9.74516e-07 14.2523 0.269931 14.8561 0.704071 15.2924C1.13852 15.7287 1.73938 16 2.39872 16L13.6013 16C14.2609 16 14.8618 15.7287 15.2959 15.2924C15.7301 14.8561 16 14.2523 16 13.5893L16 10.8552C16 10.3189 15.5668 9.88385 15.0335 9.88385C14.4999 9.88385 14.0667 10.3189 14.0667 10.8552L14.0667 13.5893C14.0667 13.7172 14.0138 13.8351 13.93 13.9197C13.8459 14.0039 13.7286 14.0571 13.6013 14.0571L2.39872 14.0571C2.27173 14.0571 2.15412 14.0039 2.0703 13.9197C1.98647 13.8351 1.9333 13.7172 1.9333 13.5893L1.9333 2.41069C1.9333 2.28275 1.98647 2.16487 2.0703 2.08031C2.15412 1.99607 2.27173 1.94295 2.39872 1.94295L5.14556 1.94295ZM12.7637 1.94295L8.35939 6.31356C7.9803 6.68794 7.97529 7.30216 8.34781 7.68283C8.72034 8.0635 9.33151 8.06884 9.71029 7.69446L14.0667 3.37069L14.0667 6.26483C14.0667 6.8011 14.4999 7.23615 15.0335 7.23615C15.5668 7.23615 16 6.8011 16 6.26483L16 0.971316C16 0.435363 15.5668 1.85632e-07 15.0335 1.79272e-07L9.87137 1.17714e-07C9.33776 1.11351e-07 8.90488 0.435363 8.90488 0.971315C8.90488 1.50758 9.33776 1.94295 9.87137 1.94295L12.7637 1.94295Z" fill="#232323"/>
</g>
<defs>
<clipPath id="clip0_1_143">
<rect width="16" height="16" fill="white" transform="matrix(1.19249e-08 -1 -1 -1.19249e-08 16 16)"/>
</clipPath>
</defs>
</svg>
