<svg width="800" height="800" viewBox="0 0 800 800" fill="none" xmlns="http://www.w3.org/2000/svg">
<path d="M617.6 494.953L630.353 482.272L600.74 452.489L587.99 465.17L617.6 494.953ZM673.179 476.96L726.669 506.04L746.727 469.143L693.237 440.062L673.179 476.96ZM736.967 563.837L697.193 603.386L726.804 633.169L766.578 593.62L736.967 563.837ZM672.958 616.12C632.364 619.903 527.338 616.532 413.626 503.459L384.014 533.242C508.103 656.633 626.207 662.658 676.855 657.938L672.958 616.12ZM413.626 503.459C305.235 395.678 287.28 305.025 285.045 265.697L243.116 268.08C245.929 317.578 268.161 418.041 384.014 533.242L413.626 503.459ZM452.132 330.414L460.162 322.429L430.551 292.647L422.521 300.631L452.132 330.414ZM466.554 220.645L431.25 173.483L397.63 198.652L432.934 245.815L466.554 220.645ZM312.51 163.217L268.564 206.916L298.176 236.698L342.122 193L312.51 163.217ZM437.327 315.523C422.521 300.632 422.501 300.651 422.481 300.672C422.474 300.678 422.454 300.699 422.44 300.712C422.413 300.74 422.385 300.768 422.357 300.797C422.3 300.855 422.241 300.915 422.181 300.978C422.059 301.104 421.931 301.24 421.796 301.386C421.526 301.68 421.23 302.015 420.912 302.394C420.277 303.151 419.558 304.084 418.802 305.2C417.287 307.436 415.635 310.394 414.234 314.114C411.375 321.703 409.842 331.707 411.763 344.096C415.522 368.323 432.206 400.326 474.945 442.823L504.556 413.04C464.561 373.269 455.033 349.067 453.263 337.657C452.421 332.227 453.294 329.554 453.535 328.922C453.681 328.53 453.751 328.49 453.571 328.758C453.482 328.888 453.333 329.093 453.101 329.369C452.986 329.507 452.849 329.663 452.689 329.837C452.608 329.924 452.524 330.016 452.429 330.112C452.384 330.16 452.337 330.209 452.286 330.259C452.261 330.285 452.236 330.31 452.211 330.336C452.2 330.349 452.18 330.368 452.172 330.375C452.152 330.394 452.132 330.414 437.327 315.523ZM474.945 442.823C517.698 485.335 549.848 501.88 574.114 505.604C586.514 507.505 596.512 505.987 604.097 503.162C607.815 501.776 610.777 500.144 613.017 498.643C614.137 497.893 615.072 497.179 615.831 496.549C616.212 496.235 616.548 495.941 616.842 495.672C616.99 495.538 617.127 495.412 617.253 495.291C617.318 495.23 617.376 495.171 617.435 495.115C617.463 495.087 617.491 495.059 617.519 495.031C617.533 495.017 617.556 494.997 617.561 494.992C617.581 494.972 617.6 494.953 602.795 480.06C587.99 465.17 588.009 465.15 588.029 465.13C588.035 465.125 588.054 465.105 588.068 465.091C588.093 465.066 588.119 465.041 588.144 465.016C588.197 464.968 588.245 464.92 588.292 464.873C588.39 464.78 588.483 464.696 588.569 464.615C588.743 464.458 588.9 464.321 589.04 464.209C589.314 463.98 589.518 463.834 589.644 463.747C589.905 463.574 589.852 463.652 589.437 463.806C588.751 464.061 586.005 464.937 580.483 464.089C568.912 462.316 544.54 452.797 504.556 413.04L474.945 442.823ZM431.25 173.483C402.711 135.359 346.593 129.326 312.51 163.217L342.122 193C357.008 178.197 383.446 179.704 397.63 198.652L431.25 173.483ZM285.045 265.697C284.495 256.006 288.939 245.883 298.176 236.698L268.564 206.916C253.52 221.875 241.694 243.051 243.116 268.08L285.045 265.697ZM697.193 603.386C689.499 611.038 681.251 615.347 672.958 616.12L676.855 657.938C697.423 656.02 714.275 645.629 726.804 633.169L697.193 603.386ZM460.162 322.429C487.726 295.02 489.776 251.665 466.554 220.645L432.934 245.815C444.231 260.906 442.551 280.714 430.551 292.647L460.162 322.429ZM726.669 506.04C749.566 518.489 753.133 547.76 736.967 563.837L766.578 593.62C804.103 556.305 792.532 494.043 746.727 469.143L726.669 506.04ZM630.353 482.272C641.105 471.581 658.41 468.933 673.179 476.96L693.237 440.062C662.898 423.568 625.247 428.123 600.74 452.489L630.353 482.272Z" fill="white"/>
</svg>
