<svg width="50" height="50" viewBox="0 0 50 50" fill="none" xmlns="http://www.w3.org/2000/svg">
<path d="M45.9891 37.8545H45.3607V26.9805C45.3607 24.8358 43.6042 23.0909 41.4454 23.0909H26.0055V15.7091H28.6448C29.1779 15.7085 29.6891 15.4937 30.0661 15.1119C30.443 14.7302 30.6551 14.2126 30.6557 13.6727V6.03636C30.6551 5.49648 30.443 4.9789 30.0661 4.59714C29.6891 4.21539 29.1779 4.00064 28.6448 4H19.9727C19.4395 4.00064 18.9284 4.21539 18.5514 4.59714C18.1744 4.9789 17.9624 5.49648 17.9617 6.03636V13.6727C17.9624 14.2126 18.1744 14.7302 18.5514 15.1119C18.9284 15.4937 19.4395 15.7085 19.9727 15.7091H22.235V23.0909H8.11461C7.60795 23.0846 7.10514 23.1808 6.6357 23.3739C6.16625 23.567 5.7396 23.8531 5.38078 24.2154C5.02197 24.5777 4.7382 25.0089 4.54614 25.4837C4.35407 25.9585 4.25757 26.4674 4.26229 26.9805V37.8545H4.01093C3.47779 37.8552 2.96667 38.0699 2.58969 38.4517C2.2127 38.8334 2.00063 39.351 2 39.8909V43.9636C2.00063 44.5035 2.2127 45.0211 2.58969 45.4029C2.96667 45.7846 3.47779 45.9994 4.01093 46H8.78688C9.32002 45.9994 9.83114 45.7846 10.2081 45.4029C10.5851 45.0211 10.7972 44.5035 10.7978 43.9636V39.8909C10.7972 39.351 10.5851 38.8334 10.2081 38.4517C9.83114 38.0699 9.32002 37.8552 8.78688 37.8545H8.03279V26.9805C8.03279 26.9329 8.03279 26.9091 8.11461 26.9091H22.235V37.8545H21.8579C21.3248 37.8552 20.8137 38.0699 20.4367 38.4517C20.0597 38.8334 19.8476 39.351 19.847 39.8909V43.9636C19.8476 44.5035 20.0597 45.0211 20.4367 45.4029C20.8137 45.7846 21.3248 45.9994 21.8579 46H26.6339C27.167 45.9994 27.6781 45.7846 28.0551 45.4029C28.4321 45.0211 28.6442 44.5035 28.6448 43.9636V39.8909C28.6442 39.351 28.4321 38.8334 28.0551 38.4517C27.6781 38.0699 27.167 37.8552 26.6339 37.8545H26.0055V26.9091H41.4454C41.5293 26.9091 41.5902 26.9517 41.5902 26.9805V37.8545H41.2131C40.68 37.8552 40.1689 38.0699 39.7919 38.4517C39.4149 38.8334 39.2028 39.351 39.2022 39.8909V43.9636C39.2028 44.5035 39.4149 45.0211 39.7919 45.4029C40.1689 45.7846 40.68 45.9994 41.2131 46H45.9891C46.5222 45.9994 47.0333 45.7846 47.4103 45.4029C47.7873 45.0211 47.9994 44.5035 48 43.9636V39.8909C47.9994 39.351 47.7873 38.8334 47.4103 38.4517C47.0333 38.0699 46.5222 37.8552 45.9891 37.8545Z" fill="#9CA2A7"/>
</svg>
